<mxfile host="app.diagrams.net" modified="2023-06-27T13:58:27.777Z" agent="Mozilla/5.0 (X11; Linux aarch64) AppleWebKit/537.36 (KHTML, like Gecko) Chrome/86.0.4240.198 Safari/537.36" version="21.4.0" etag="MfK_SolBdSe40SLSzcQB" type="github">
  <diagram name="Page-1" id="J6QkaET0Kc3USVtUqave">
    <mxGraphModel>
      <root>
        <mxCell id="0" />
        <mxCell id="1" parent="0" />
      </root>
    </mxGraphModel>
  </diagram>
</mxfile>
